<?xml version="1.0" standalone="no"?>
<!DOCTYPE svg PUBLIC "-//W3C//DTD SVG 20010904//EN"
 "http://www.w3.org/TR/2001/REC-SVG-20010904/DTD/svg10.dtd">
<svg version="1.0" xmlns="http://www.w3.org/2000/svg"
 width="500.000000pt" height="500.000000pt" viewBox="0 0 500.000000 500.000000"
 preserveAspectRatio="xMidYMid meet">

<g transform="translate(0.000000,500.000000) scale(0.100000,-0.100000)"
fill="#000000" stroke="none">
<path d="M3520 4801 c-199 -43 -383 -133 -550 -269 -68 -55 -921 -903 -893
-888 6 3 56 16 110 27 201 42 418 23 560 -49 l53 -26 272 269 c288 285 327
315 460 362 97 35 233 36 323 4 157 -56 319 -218 376 -376 31 -83 31 -235 0
-319 -54 -151 -57 -154 -670 -769 -331 -332 -601 -595 -634 -617 -194 -131
-430 -117 -635 38 -112 84 -208 225 -240 350 l-18 71 -201 -200 c-111 -110
-207 -206 -213 -214 -9 -11 -3 -29 26 -81 138 -247 384 -467 624 -557 113 -42
200 -57 337 -57 177 0 306 32 478 117 199 99 221 118 828 722 313 312 597 602
631 646 194 249 285 505 273 770 -12 263 -122 491 -347 715 -163 162 -321 261
-506 316 -121 36 -318 43 -444 15z"/>
<path d="M2280 3499 c-127 -11 -302 -66 -427 -135 -172 -94 -202 -122 -814
-733 -505 -505 -606 -610 -658 -688 -141 -212 -208 -399 -218 -605 -15 -298
97 -558 347 -808 228 -227 453 -336 720 -347 199 -8 375 37 574 147 162 90
247 164 686 604 351 352 419 424 390 416 -96 -28 -195 -41 -305 -41 -138 -1
-226 16 -328 63 l-67 31 -273 -269 c-200 -198 -289 -279 -337 -307 -254 -147
-521 -94 -716 142 -127 153 -162 315 -105 491 46 145 54 154 691 791 634 635
632 633 769 673 283 83 639 -147 720 -465 l17 -68 207 207 c114 114 210 210
213 214 3 4 -10 35 -29 70 -163 291 -448 522 -731 593 -107 26 -209 34 -326
24z"/>
</g>
</svg>
